<svg width="981" height="348" viewBox="0 0 981 348" fill="none" xmlns="http://www.w3.org/2000/svg">
<path d="M906.837 174C906.837 186.296 912.091 198.221 919.689 209.622C927.29 221.025 937.307 232.007 946.958 242.409C947.596 243.096 948.232 243.782 948.866 244.464C957.849 254.135 966.338 263.274 972.195 271.849C978.486 281.06 981.539 289.334 979.232 296.739C976.924 304.147 969.114 311.119 952.512 317.347C935.954 323.559 910.908 328.934 874.605 333.333C802.012 342.131 684.647 347 500.709 347C316.773 347 197.139 342.131 121.145 333.333C83.1444 328.933 56.1023 323.557 37.4048 317.335C18.6718 311.101 8.49762 304.077 3.97021 296.523C-0.507538 289.051 0.402419 280.809 4.53573 271.698C8.67979 262.564 15.9729 252.764 23.9458 242.336C24.5651 241.526 25.1884 240.712 25.8144 239.895C33.2171 230.232 40.9979 220.075 47.0812 209.568C53.6806 198.17 58.343 186.263 58.343 174C58.343 161.737 53.6806 149.83 47.0812 138.432C40.9979 127.925 33.2171 117.768 25.8143 108.105C25.1884 107.288 24.5651 106.474 23.9458 105.664C15.9729 95.2363 8.67979 85.4363 4.53573 76.3018C0.402419 67.1909 -0.507538 58.9492 3.97021 51.4774C8.49762 43.9228 18.6718 36.899 37.4048 30.6653C56.1023 24.4433 83.1444 19.0665 121.145 14.6671C197.139 5.86926 316.773 0.999985 500.709 0.999985C684.647 0.999985 802.012 5.86941 874.605 14.6665C910.908 19.0659 935.954 24.441 952.512 30.6527C969.114 36.8813 976.924 43.8529 979.232 51.2609C981.539 58.6656 978.486 66.9403 972.195 76.1509C966.338 84.7259 957.849 93.8648 948.866 103.536C948.232 104.218 947.596 104.903 946.958 105.591C937.307 115.993 927.29 126.975 919.689 138.378C912.091 149.779 906.837 161.704 906.837 174Z" fill="white" stroke="black" stroke-width="2"/>
</svg>
